<svg width="1440" height="1024" viewBox="0 0 1440 1024" fill="none" xmlns="http://www.w3.org/2000/svg">
<g clip-path="url(#clip0)">
<rect width="1440" height="1024" fill="white"/>
<path d="M-7.5 -18.6699C-2.85899 -21.3494 2.85898 -21.3494 7.5 -18.6699L35.8013 -2.33013C40.4423 0.349363 43.3013 5.30127 43.3013 10.6603V43.3397C43.3013 48.6987 40.4423 53.6506 35.8013 56.3301L7.5 72.6699C2.85899 75.3494 -2.85898 75.3494 -7.5 72.6699L-35.8013 56.3301C-40.4423 53.6506 -43.3013 48.6987 -43.3013 43.3397V10.6603C-43.3013 5.30127 -40.4423 0.349365 -35.8013 -2.33013L-7.5 -18.6699Z" fill="#FF9800"/>
<path d="M42.4023 90.3301C47.0434 87.6506 52.7613 87.6506 57.4023 90.3301L69.1646 97.121C73.8056 99.8005 76.6646 104.752 76.6646 110.111V123.693C76.6646 129.052 73.8056 134.004 69.1646 136.684L57.4024 143.475C52.7613 146.154 47.0434 146.154 42.4023 143.475L30.6401 136.684C25.9991 134.004 23.1401 129.052 23.1401 123.693V110.111C23.1401 104.752 25.9991 99.8005 30.6401 97.121L42.4023 90.3301Z" stroke="#FF9800" stroke-width="7"/>
<path d="M-7.5 151.33C-2.85899 148.651 2.85898 148.651 7.5 151.33L35.8013 167.67C40.4423 170.349 43.3013 175.301 43.3013 180.66V213.34C43.3013 218.699 40.4423 223.651 35.8013 226.33L7.5 242.67C2.85899 245.349 -2.85898 245.349 -7.5 242.67L-35.8013 226.33C-40.4423 223.651 -43.3013 218.699 -43.3013 213.34V180.66C-43.3013 175.301 -40.4423 170.349 -35.8013 167.67L-7.5 151.33Z" fill="#FF9800"/>
<path d="M792.5 -18.6699C797.141 -21.3494 802.859 -21.3494 807.5 -18.6699L835.801 -2.33013C840.442 0.349363 843.301 5.30127 843.301 10.6603V43.3397C843.301 48.6987 840.442 53.6506 835.801 56.3301L807.5 72.6699C802.859 75.3494 797.141 75.3494 792.5 72.6699L764.199 56.3301C759.558 53.6506 756.699 48.6987 756.699 43.3397V10.6603C756.699 5.30127 759.558 0.349365 764.199 -2.33013L792.5 -18.6699Z" fill="#FF9800"/>
<path d="M842.5 67.3301C847.141 64.6506 852.859 64.6506 857.5 67.3301L885.801 83.6699C890.442 86.3494 893.301 91.3013 893.301 96.6603V129.34C893.301 134.699 890.442 139.651 885.801 142.33L857.5 158.67C852.859 161.349 847.141 161.349 842.5 158.67L814.199 142.33C809.558 139.651 806.699 134.699 806.699 129.34V96.6603C806.699 91.3013 809.558 86.3494 814.199 83.6699L842.5 67.3301Z" stroke="#FF9800" stroke-width="7"/>
<path d="M792.402 174.33C797.043 171.651 802.761 171.651 807.402 174.33L819.165 181.121C823.806 183.801 826.665 188.752 826.665 194.111V207.693C826.665 213.052 823.806 218.004 819.165 220.684L807.402 227.475C802.761 230.154 797.043 230.154 792.402 227.475L780.64 220.684C775.999 218.004 773.14 213.052 773.14 207.693V194.111C773.14 188.752 775.999 183.801 780.64 181.121L792.402 174.33Z" fill="#FF9800"/>
<path d="M392.402 4.33013C397.043 1.65064 402.761 1.65064 407.402 4.33013L419.165 11.121C423.806 13.8005 426.665 18.7524 426.665 24.1114V37.6933C426.665 43.0523 423.806 48.0042 419.165 50.6837L407.402 57.4746C402.761 60.1541 397.043 60.1541 392.402 57.4746L380.64 50.6837C375.999 48.0042 373.14 43.0523 373.14 37.6933V24.1114C373.14 18.7524 375.999 13.8005 380.64 11.121L392.402 4.33013Z" stroke="#FF9800" stroke-width="7"/>
<path d="M442.5 67.3301C447.141 64.6506 452.859 64.6506 457.5 67.3301L485.801 83.6699C490.442 86.3494 493.301 91.3013 493.301 96.6603V129.34C493.301 134.699 490.442 139.651 485.801 142.33L457.5 158.67C452.859 161.349 447.141 161.349 442.5 158.67L414.199 142.33C409.558 139.651 406.699 134.699 406.699 129.34V96.6603C406.699 91.3013 409.558 86.3494 414.199 83.6699L442.5 67.3301Z" stroke="#FF9800" stroke-width="7"/>
<path d="M392.5 151.33C397.141 148.651 402.859 148.651 407.5 151.33L435.801 167.67C440.442 170.349 443.301 175.301 443.301 180.66V213.34C443.301 218.699 440.442 223.651 435.801 226.33L407.5 242.67C402.859 245.349 397.141 245.349 392.5 242.67L364.199 226.33C359.558 223.651 356.699 218.699 356.699 213.34V180.66C356.699 175.301 359.558 170.349 364.199 167.67L392.5 151.33Z" stroke="#FF9800" stroke-width="7"/>
<path d="M1192.5 -18.6699C1197.14 -21.3494 1202.86 -21.3494 1207.5 -18.6699L1235.8 -2.33013C1240.44 0.349363 1243.3 5.30127 1243.3 10.6603V43.3397C1243.3 48.6987 1240.44 53.6506 1235.8 56.3301L1207.5 72.6699C1202.86 75.3494 1197.14 75.3494 1192.5 72.6699L1164.2 56.3301C1159.56 53.6506 1156.7 48.6987 1156.7 43.3397V10.6603C1156.7 5.30127 1159.56 0.349365 1164.2 -2.33013L1192.5 -18.6699Z" stroke="#FF9800" stroke-width="7"/>
<path d="M1242.5 67.3301C1247.14 64.6506 1252.86 64.6506 1257.5 67.3301L1285.8 83.6699C1290.44 86.3494 1293.3 91.3013 1293.3 96.6603V129.34C1293.3 134.699 1290.44 139.651 1285.8 142.33L1257.5 158.67C1252.86 161.349 1247.14 161.349 1242.5 158.67L1214.2 142.33C1209.56 139.651 1206.7 134.699 1206.7 129.34V96.6603C1206.7 91.3013 1209.56 86.3494 1214.2 83.6699L1242.5 67.3301Z" stroke="#FF9800" stroke-width="7"/>
<path d="M1192.5 151.33C1197.14 148.651 1202.86 148.651 1207.5 151.33L1235.8 167.67C1240.44 170.349 1243.3 175.301 1243.3 180.66V213.34C1243.3 218.699 1240.44 223.651 1235.8 226.33L1207.5 242.67C1202.86 245.349 1197.14 245.349 1192.5 242.67L1164.2 226.33C1159.56 223.651 1156.7 218.699 1156.7 213.34V180.66C1156.7 175.301 1159.56 170.349 1164.2 167.67L1192.5 151.33Z" fill="#FF9800"/>
<path d="M1242.5 233.33C1247.14 230.651 1252.86 230.651 1257.5 233.33L1285.8 249.67C1290.44 252.349 1293.3 257.301 1293.3 262.66V295.34C1293.3 300.699 1290.44 305.651 1285.8 308.33L1257.5 324.67C1252.86 327.349 1247.14 327.349 1242.5 324.67L1214.2 308.33C1209.56 305.651 1206.7 300.699 1206.7 295.34V262.66C1206.7 257.301 1209.56 252.349 1214.2 249.67L1242.5 233.33Z" fill="#FF9800"/>
<path d="M1292.5 321.33C1297.14 318.651 1302.86 318.651 1307.5 321.33L1335.8 337.67C1340.44 340.349 1343.3 345.301 1343.3 350.66V383.34C1343.3 388.699 1340.44 393.651 1335.8 396.33L1307.5 412.67C1302.86 415.349 1297.14 415.349 1292.5 412.67L1264.2 396.33C1259.56 393.651 1256.7 388.699 1256.7 383.34V350.66C1256.7 345.301 1259.56 340.349 1264.2 337.67L1292.5 321.33Z" stroke="#FF9800" stroke-width="7"/>
<path d="M1342.4 426.33C1347.04 423.651 1352.76 423.651 1357.4 426.33L1369.16 433.121C1373.81 435.801 1376.66 440.752 1376.66 446.111V459.693C1376.66 465.052 1373.81 470.004 1369.16 472.684L1357.4 479.475C1352.76 482.154 1347.04 482.154 1342.4 479.475L1330.64 472.684C1326 470.004 1323.14 465.052 1323.14 459.693V446.111C1323.14 440.752 1326 435.801 1330.64 433.121L1342.4 426.33Z" fill="#FF9800"/>
<path d="M192.402 4.33013C197.043 1.65064 202.761 1.65064 207.402 4.33013L219.165 11.121C223.806 13.8005 226.665 18.7524 226.665 24.1114V37.6933C226.665 43.0523 223.806 48.0042 219.165 50.6837L207.402 57.4746C202.761 60.1541 197.043 60.1541 192.402 57.4746L180.64 50.6837C175.999 48.0042 173.14 43.0523 173.14 37.6933V24.1114C173.14 18.7524 175.999 13.8005 180.64 11.121L192.402 4.33013Z" fill="#FF9800"/>
<path d="M242.5 67.3301C247.141 64.6506 252.859 64.6506 257.5 67.3301L285.801 83.6699C290.442 86.3494 293.301 91.3013 293.301 96.6603V129.34C293.301 134.699 290.442 139.651 285.801 142.33L257.5 158.67C252.859 161.349 247.141 161.349 242.5 158.67L214.199 142.33C209.558 139.651 206.699 134.699 206.699 129.34V96.6603C206.699 91.3013 209.558 86.3494 214.199 83.6699L242.5 67.3301Z" stroke="#FF9800" stroke-width="7"/>
<path d="M192.402 174.33C197.043 171.651 202.761 171.651 207.402 174.33L219.165 181.121C223.806 183.801 226.665 188.752 226.665 194.111V207.693C226.665 213.052 223.806 218.004 219.165 220.684L207.402 227.475C202.761 230.154 197.043 230.154 192.402 227.475L180.64 220.684C175.999 218.004 173.14 213.052 173.14 207.693V194.111C173.14 188.752 175.999 183.801 180.64 181.121L192.402 174.33Z" fill="#FF9800"/>
<path d="M992.5 -18.6699C997.141 -21.3494 1002.86 -21.3494 1007.5 -18.6699L1035.8 -2.33013C1040.44 0.349363 1043.3 5.30127 1043.3 10.6603V43.3397C1043.3 48.6987 1040.44 53.6506 1035.8 56.3301L1007.5 72.6699C1002.86 75.3494 997.141 75.3494 992.5 72.6699L964.199 56.3301C959.558 53.6506 956.699 48.6987 956.699 43.3397V10.6603C956.699 5.30127 959.558 0.349365 964.199 -2.33013L992.5 -18.6699Z" stroke="#FF9800" stroke-width="7"/>
<path d="M1042.4 90.3301C1047.04 87.6506 1052.76 87.6506 1057.4 90.3301L1069.16 97.121C1073.81 99.8005 1076.66 104.752 1076.66 110.111V123.693C1076.66 129.052 1073.81 134.004 1069.16 136.684L1057.4 143.475C1052.76 146.154 1047.04 146.154 1042.4 143.475L1030.64 136.684C1026 134.004 1023.14 129.052 1023.14 123.693V110.111C1023.14 104.752 1026 99.8005 1030.64 97.121L1042.4 90.3301Z" fill="#FF9800"/>
<path d="M992.5 151.33C997.141 148.651 1002.86 148.651 1007.5 151.33L1035.8 167.67C1040.44 170.349 1043.3 175.301 1043.3 180.66V213.34C1043.3 218.699 1040.44 223.651 1035.8 226.33L1007.5 242.67C1002.86 245.349 997.141 245.349 992.5 242.67L964.199 226.33C959.558 223.651 956.699 218.699 956.699 213.34V180.66C956.699 175.301 959.558 170.349 964.199 167.67L992.5 151.33Z" fill="#FF9800"/>
<path d="M1042.4 256.33C1047.04 253.651 1052.76 253.651 1057.4 256.33L1069.16 263.121C1073.81 265.801 1076.66 270.752 1076.66 276.111V289.693C1076.66 295.052 1073.81 300.004 1069.16 302.684L1057.4 309.475C1052.76 312.154 1047.04 312.154 1042.4 309.475L1030.64 302.684C1026 300.004 1023.14 295.052 1023.14 289.693V276.111C1023.14 270.752 1026 265.801 1030.64 263.121L1042.4 256.33Z" stroke="#FF9800" stroke-width="7"/>
<path d="M1092.5 321.33C1097.14 318.651 1102.86 318.651 1107.5 321.33L1135.8 337.67C1140.44 340.349 1143.3 345.301 1143.3 350.66V383.34C1143.3 388.699 1140.44 393.651 1135.8 396.33L1107.5 412.67C1102.86 415.349 1097.14 415.349 1092.5 412.67L1064.2 396.33C1059.56 393.651 1056.7 388.699 1056.7 383.34V350.66C1056.7 345.301 1059.56 340.349 1064.2 337.67L1092.5 321.33Z" stroke="#FF9800" stroke-width="7"/>
<path d="M1142.4 426.33C1147.04 423.651 1152.76 423.651 1157.4 426.33L1169.16 433.121C1173.81 435.801 1176.66 440.752 1176.66 446.111V459.693C1176.66 465.052 1173.81 470.004 1169.16 472.684L1157.4 479.475C1152.76 482.154 1147.04 482.154 1142.4 479.475L1130.64 472.684C1126 470.004 1123.14 465.052 1123.14 459.693V446.111C1123.14 440.752 1126 435.801 1130.64 433.121L1142.4 426.33Z" fill="#FF9800"/>
<path d="M592.402 4.33013C597.043 1.65064 602.761 1.65064 607.402 4.33013L619.165 11.121C623.806 13.8005 626.665 18.7524 626.665 24.1114V37.6933C626.665 43.0523 623.806 48.0042 619.165 50.6837L607.402 57.4746C602.761 60.1541 597.043 60.1541 592.402 57.4746L580.64 50.6837C575.999 48.0042 573.14 43.0523 573.14 37.6933V24.1114C573.14 18.7524 575.999 13.8005 580.64 11.121L592.402 4.33013Z" fill="#FF9800"/>
<path d="M642.5 67.3301C647.141 64.6506 652.859 64.6506 657.5 67.3301L685.801 83.6699C690.442 86.3494 693.301 91.3013 693.301 96.6603V129.34C693.301 134.699 690.442 139.651 685.801 142.33L657.5 158.67C652.859 161.349 647.141 161.349 642.5 158.67L614.199 142.33C609.558 139.651 606.699 134.699 606.699 129.34V96.6603C606.699 91.3013 609.558 86.3494 614.199 83.6699L642.5 67.3301Z" fill="#FF9800"/>
<path d="M1392.5 -18.6699C1397.14 -21.3494 1402.86 -21.3494 1407.5 -18.6699L1435.8 -2.33013C1440.44 0.349363 1443.3 5.30127 1443.3 10.6603V43.3397C1443.3 48.6987 1440.44 53.6506 1435.8 56.3301L1407.5 72.6699C1402.86 75.3494 1397.14 75.3494 1392.5 72.6699L1364.2 56.3301C1359.56 53.6506 1356.7 48.6987 1356.7 43.3397V10.6603C1356.7 5.30127 1359.56 0.349365 1364.2 -2.33013L1392.5 -18.6699Z" stroke="#FF9800" stroke-width="7"/>
<path d="M1442.5 67.3301C1447.14 64.6506 1452.86 64.6506 1457.5 67.3301L1485.8 83.6699C1490.44 86.3494 1493.3 91.3013 1493.3 96.6603V129.34C1493.3 134.699 1490.44 139.651 1485.8 142.33L1457.5 158.67C1452.86 161.349 1447.14 161.349 1442.5 158.67L1414.2 142.33C1409.56 139.651 1406.7 134.699 1406.7 129.34V96.6603C1406.7 91.3013 1409.56 86.3494 1414.2 83.6699L1442.5 67.3301Z" fill="#FF9800"/>
<path d="M1392.5 151.33C1397.14 148.651 1402.86 148.651 1407.5 151.33L1435.8 167.67C1440.44 170.349 1443.3 175.301 1443.3 180.66V213.34C1443.3 218.699 1440.44 223.651 1435.8 226.33L1407.5 242.67C1402.86 245.349 1397.14 245.349 1392.5 242.67L1364.2 226.33C1359.56 223.651 1356.7 218.699 1356.7 213.34V180.66C1356.7 175.301 1359.56 170.349 1364.2 167.67L1392.5 151.33Z" fill="#FF9800"/>
<path d="M1442.5 233.33C1447.14 230.651 1452.86 230.651 1457.5 233.33L1485.8 249.67C1490.44 252.349 1493.3 257.301 1493.3 262.66V295.34C1493.3 300.699 1490.44 305.651 1485.8 308.33L1457.5 324.67C1452.86 327.349 1447.14 327.349 1442.5 324.67L1414.2 308.33C1409.56 305.651 1406.7 300.699 1406.7 295.34V262.66C1406.7 257.301 1409.56 252.349 1414.2 249.67L1442.5 233.33Z" fill="#FF9800"/>
<path d="M92.5 -18.6699C97.141 -21.3494 102.859 -21.3494 107.5 -18.6699L135.801 -2.33013C140.442 0.349363 143.301 5.30127 143.301 10.6603V43.3397C143.301 48.6987 140.442 53.6506 135.801 56.3301L107.5 72.6699C102.859 75.3494 97.141 75.3494 92.5 72.6699L64.1987 56.3301C59.5577 53.6506 56.6987 48.6987 56.6987 43.3397V10.6603C56.6987 5.30127 59.5577 0.349365 64.1987 -2.33013L92.5 -18.6699Z" stroke="#FF9800" stroke-width="7"/>
<path d="M142.5 67.3301C147.141 64.6506 152.859 64.6506 157.5 67.3301L185.801 83.6699C190.442 86.3494 193.301 91.3013 193.301 96.6603V129.34C193.301 134.699 190.442 139.651 185.801 142.33L157.5 158.67C152.859 161.349 147.141 161.349 142.5 158.67L114.199 142.33C109.558 139.651 106.699 134.699 106.699 129.34V96.6603C106.699 91.3013 109.558 86.3494 114.199 83.6699L142.5 67.3301Z" fill="#FF9800"/>
<path d="M92.5 151.33C97.141 148.651 102.859 148.651 107.5 151.33L135.801 167.67C140.442 170.349 143.301 175.301 143.301 180.66V213.34C143.301 218.699 140.442 223.651 135.801 226.33L107.5 242.67C102.859 245.349 97.141 245.349 92.5 242.67L64.1987 226.33C59.5577 223.651 56.6987 218.699 56.6987 213.34V180.66C56.6987 175.301 59.5577 170.349 64.1987 167.67L92.5 151.33Z" stroke="#FF9800" stroke-width="7"/>
<path d="M892.5 -18.6699C897.141 -21.3494 902.859 -21.3494 907.5 -18.6699L935.801 -2.33013C940.442 0.349363 943.301 5.30127 943.301 10.6603V43.3397C943.301 48.6987 940.442 53.6506 935.801 56.3301L907.5 72.6699C902.859 75.3494 897.141 75.3494 892.5 72.6699L864.199 56.3301C859.558 53.6506 856.699 48.6987 856.699 43.3397V10.6603C856.699 5.30127 859.558 0.349365 864.199 -2.33013L892.5 -18.6699Z" fill="#FF9800"/>
<path d="M942.5 67.3301C947.141 64.6506 952.859 64.6506 957.5 67.3301L985.801 83.6699C990.442 86.3494 993.301 91.3013 993.301 96.6603V129.34C993.301 134.699 990.442 139.651 985.801 142.33L957.5 158.67C952.859 161.349 947.141 161.349 942.5 158.67L914.199 142.33C909.558 139.651 906.699 134.699 906.699 129.34V96.6603C906.699 91.3013 909.558 86.3494 914.199 83.6699L942.5 67.3301Z" stroke="#FF9800" stroke-width="7"/>
<path d="M892.402 174.33C897.043 171.651 902.761 171.651 907.402 174.33L919.165 181.121C923.806 183.801 926.665 188.752 926.665 194.111V207.693C926.665 213.052 923.806 218.004 919.165 220.684L907.402 227.475C902.761 230.154 897.043 230.154 892.402 227.475L880.64 220.684C875.999 218.004 873.14 213.052 873.14 207.693V194.111C873.14 188.752 875.999 183.801 880.64 181.121L892.402 174.33Z" fill="#FF9800"/>
<path d="M992.402 344.33C997.043 341.651 1002.76 341.651 1007.4 344.33L1019.16 351.121C1023.81 353.801 1026.66 358.752 1026.66 364.111V377.693C1026.66 383.052 1023.81 388.004 1019.16 390.684L1007.4 397.475C1002.76 400.154 997.043 400.154 992.402 397.475L980.64 390.684C975.999 388.004 973.14 383.052 973.14 377.693V364.111C973.14 358.752 975.999 353.801 980.64 351.121L992.402 344.33Z" fill="#FF9800"/>
<path d="M492.5 -18.6699C497.141 -21.3494 502.859 -21.3494 507.5 -18.6699L535.801 -2.33013C540.442 0.349363 543.301 5.30127 543.301 10.6603V43.3397C543.301 48.6987 540.442 53.6506 535.801 56.3301L507.5 72.6699C502.859 75.3494 497.141 75.3494 492.5 72.6699L464.199 56.3301C459.558 53.6506 456.699 48.6987 456.699 43.3397V10.6603C456.699 5.30127 459.558 0.349365 464.199 -2.33013L492.5 -18.6699Z" fill="#FF9800"/>
<path d="M542.402 90.3301C547.043 87.6506 552.761 87.6506 557.402 90.3301L569.165 97.121C573.806 99.8005 576.665 104.752 576.665 110.111V123.693C576.665 129.052 573.806 134.004 569.165 136.684L557.402 143.475C552.761 146.154 547.043 146.154 542.402 143.475L530.64 136.684C525.999 134.004 523.14 129.052 523.14 123.693V110.111C523.14 104.752 525.999 99.8005 530.64 97.121L542.402 90.3301Z" fill="#FF9800"/>
<path d="M492.5 151.33C497.141 148.651 502.859 148.651 507.5 151.33L535.801 167.67C540.442 170.349 543.301 175.301 543.301 180.66V213.34C543.301 218.699 540.442 223.651 535.801 226.33L507.5 242.67C502.859 245.349 497.141 245.349 492.5 242.67L464.199 226.33C459.558 223.651 456.699 218.699 456.699 213.34V180.66C456.699 175.301 459.558 170.349 464.199 167.67L492.5 151.33Z" fill="#FF9800"/>
<path d="M1292.5 -18.6699C1297.14 -21.3494 1302.86 -21.3494 1307.5 -18.6699L1335.8 -2.33013C1340.44 0.349363 1343.3 5.30127 1343.3 10.6603V43.3397C1343.3 48.6987 1340.44 53.6506 1335.8 56.3301L1307.5 72.6699C1302.86 75.3494 1297.14 75.3494 1292.5 72.6699L1264.2 56.3301C1259.56 53.6506 1256.7 48.6987 1256.7 43.3397V10.6603C1256.7 5.30127 1259.56 0.349365 1264.2 -2.33013L1292.5 -18.6699Z" fill="#FF9800"/>
<path d="M1342.4 90.3301C1347.04 87.6506 1352.76 87.6506 1357.4 90.3301L1369.16 97.121C1373.81 99.8005 1376.66 104.752 1376.66 110.111V123.693C1376.66 129.052 1373.81 134.004 1369.16 136.684L1357.4 143.475C1352.76 146.154 1347.04 146.154 1342.4 143.475L1330.64 136.684C1326 134.004 1323.14 129.052 1323.14 123.693V110.111C1323.14 104.752 1326 99.8005 1330.64 97.121L1342.4 90.3301Z" fill="#FF9800"/>
<path d="M1292.4 174.33C1297.04 171.651 1302.76 171.651 1307.4 174.33L1319.16 181.121C1323.81 183.801 1326.66 188.752 1326.66 194.111V207.693C1326.66 213.052 1323.81 218.004 1319.16 220.684L1307.4 227.475C1302.76 230.154 1297.04 230.154 1292.4 227.475L1280.64 220.684C1276 218.004 1273.14 213.052 1273.14 207.693V194.111C1273.14 188.752 1276 183.801 1280.64 181.121L1292.4 174.33Z" fill="#FF9800"/>
<path d="M1342.4 256.33C1347.04 253.651 1352.76 253.651 1357.4 256.33L1369.16 263.121C1373.81 265.801 1376.66 270.752 1376.66 276.111V289.693C1376.66 295.052 1373.81 300.004 1369.16 302.684L1357.4 309.475C1352.76 312.154 1347.04 312.154 1342.4 309.475L1330.64 302.684C1326 300.004 1323.14 295.052 1323.14 289.693V276.111C1323.14 270.752 1326 265.801 1330.64 263.121L1342.4 256.33Z" fill="#FF9800"/>
<path d="M1392.5 321.33C1397.14 318.651 1402.86 318.651 1407.5 321.33L1435.8 337.67C1440.44 340.349 1443.3 345.301 1443.3 350.66V383.34C1443.3 388.699 1440.44 393.651 1435.8 396.33L1407.5 412.67C1402.86 415.349 1397.14 415.349 1392.5 412.67L1364.2 396.33C1359.56 393.651 1356.7 388.699 1356.7 383.34V350.66C1356.7 345.301 1359.56 340.349 1364.2 337.67L1392.5 321.33Z" stroke="#FF9800" stroke-width="7"/>
<path d="M1442.5 403.33C1447.14 400.651 1452.86 400.651 1457.5 403.33L1485.8 419.67C1490.44 422.349 1493.3 427.301 1493.3 432.66V465.34C1493.3 470.699 1490.44 475.651 1485.8 478.33L1457.5 494.67C1452.86 497.349 1447.14 497.349 1442.5 494.67L1414.2 478.33C1409.56 475.651 1406.7 470.699 1406.7 465.34V432.66C1406.7 427.301 1409.56 422.349 1414.2 419.67L1442.5 403.33Z" fill="#FF9800"/>
<path d="M292.5 -18.6699C297.141 -21.3494 302.859 -21.3494 307.5 -18.6699L335.801 -2.33013C340.442 0.349363 343.301 5.30127 343.301 10.6603V43.3397C343.301 48.6987 340.442 53.6506 335.801 56.3301L307.5 72.6699C302.859 75.3494 297.141 75.3494 292.5 72.6699L264.199 56.3301C259.558 53.6506 256.699 48.6987 256.699 43.3397V10.6603C256.699 5.30127 259.558 0.349365 264.199 -2.33013L292.5 -18.6699Z" fill="#FF9800"/>
<path d="M342.402 90.3301C347.043 87.6506 352.761 87.6506 357.402 90.3301L369.165 97.121C373.806 99.8005 376.665 104.752 376.665 110.111V123.693C376.665 129.052 373.806 134.004 369.165 136.684L357.402 143.475C352.761 146.154 347.043 146.154 342.402 143.475L330.64 136.684C325.999 134.004 323.14 129.052 323.14 123.693V110.111C323.14 104.752 325.999 99.8005 330.64 97.121L342.402 90.3301Z" fill="#FF9800"/>
<path d="M1092.5 -18.6699C1097.14 -21.3494 1102.86 -21.3494 1107.5 -18.6699L1135.8 -2.33013C1140.44 0.349363 1143.3 5.30127 1143.3 10.6603V43.3397C1143.3 48.6987 1140.44 53.6506 1135.8 56.3301L1107.5 72.6699C1102.86 75.3494 1097.14 75.3494 1092.5 72.6699L1064.2 56.3301C1059.56 53.6506 1056.7 48.6987 1056.7 43.3397V10.6603C1056.7 5.30127 1059.56 0.349365 1064.2 -2.33013L1092.5 -18.6699Z" fill="#FF9800"/>
<path d="M1142.4 90.3301C1147.04 87.6506 1152.76 87.6506 1157.4 90.3301L1169.16 97.121C1173.81 99.8005 1176.66 104.752 1176.66 110.111V123.693C1176.66 129.052 1173.81 134.004 1169.16 136.684L1157.4 143.475C1152.76 146.154 1147.04 146.154 1142.4 143.475L1130.64 136.684C1126 134.004 1123.14 129.052 1123.14 123.693V110.111C1123.14 104.752 1126 99.8005 1130.64 97.121L1142.4 90.3301Z" fill="#FF9800"/>
<path d="M1092.4 174.33C1097.04 171.651 1102.76 171.651 1107.4 174.33L1119.16 181.121C1123.81 183.801 1126.66 188.752 1126.66 194.111V207.693C1126.66 213.052 1123.81 218.004 1119.16 220.684L1107.4 227.475C1102.76 230.154 1097.04 230.154 1092.4 227.475L1080.64 220.684C1076 218.004 1073.14 213.052 1073.14 207.693V194.111C1073.14 188.752 1076 183.801 1080.64 181.121L1092.4 174.33Z" fill="#FF9800"/>
<path d="M1142.4 256.33C1147.04 253.651 1152.76 253.651 1157.4 256.33L1169.16 263.121C1173.81 265.801 1176.66 270.752 1176.66 276.111V289.693C1176.66 295.052 1173.81 300.004 1169.16 302.684L1157.4 309.475C1152.76 312.154 1147.04 312.154 1142.4 309.475L1130.64 302.684C1126 300.004 1123.14 295.052 1123.14 289.693V276.111C1123.14 270.752 1126 265.801 1130.64 263.121L1142.4 256.33Z" stroke="#FF9800" stroke-width="7"/>
<path d="M1192.4 344.33C1197.04 341.651 1202.76 341.651 1207.4 344.33L1219.16 351.121C1223.81 353.801 1226.66 358.752 1226.66 364.111V377.693C1226.66 383.052 1223.81 388.004 1219.16 390.684L1207.4 397.475C1202.76 400.154 1197.04 400.154 1192.4 397.475L1180.64 390.684C1176 388.004 1173.14 383.052 1173.14 377.693V364.111C1173.14 358.752 1176 353.801 1180.64 351.121L1192.4 344.33Z" fill="#FF9800"/>
<path d="M1242.5 403.33C1247.14 400.651 1252.86 400.651 1257.5 403.33L1285.8 419.67C1290.44 422.349 1293.3 427.301 1293.3 432.66V465.34C1293.3 470.699 1290.44 475.651 1285.8 478.33L1257.5 494.67C1252.86 497.349 1247.14 497.349 1242.5 494.67L1214.2 478.33C1209.56 475.651 1206.7 470.699 1206.7 465.34V432.66C1206.7 427.301 1209.56 422.349 1214.2 419.67L1242.5 403.33Z" stroke="#FF9800" stroke-width="7"/>
<path d="M692.5 -18.6699C697.141 -21.3494 702.859 -21.3494 707.5 -18.6699L735.801 -2.33013C740.442 0.349363 743.301 5.30127 743.301 10.6603V43.3397C743.301 48.6987 740.442 53.6506 735.801 56.3301L707.5 72.6699C702.859 75.3494 697.141 75.3494 692.5 72.6699L664.199 56.3301C659.558 53.6506 656.699 48.6987 656.699 43.3397V10.6603C656.699 5.30127 659.558 0.349365 664.199 -2.33013L692.5 -18.6699Z" stroke="#FF9800" stroke-width="7"/>
<path d="M742.402 90.3301C747.043 87.6506 752.761 87.6506 757.402 90.3301L769.165 97.121C773.806 99.8005 776.665 104.752 776.665 110.111V123.693C776.665 129.052 773.806 134.004 769.165 136.684L757.402 143.475C752.761 146.154 747.043 146.154 742.402 143.475L730.64 136.684C725.999 134.004 723.14 129.052 723.14 123.693V110.111C723.14 104.752 725.999 99.8005 730.64 97.121L742.402 90.3301Z" fill="#FF9800"/>
<path d="M692.5 151.33C697.141 148.651 702.859 148.651 707.5 151.33L735.801 167.67C740.442 170.349 743.301 175.301 743.301 180.66V213.34C743.301 218.699 740.442 223.651 735.801 226.33L707.5 242.67C702.859 245.349 697.141 245.349 692.5 242.67L664.199 226.33C659.558 223.651 656.699 218.699 656.699 213.34V180.66C656.699 175.301 659.558 170.349 664.199 167.67L692.5 151.33Z" stroke="#FF9800" stroke-width="7"/>
</g>
<defs>
<clipPath id="clip0">
<rect width="1440" height="1024" fill="white"/>
</clipPath>
</defs>
</svg>
