<svg width="238" height="218" viewBox="0 0 238 218" fill="none" xmlns="http://www.w3.org/2000/svg">
<path d="M76.3612 146.25L92.701 117.949C94.7552 114.391 98.5517 112.199 102.66 112.199H135.34C139.448 112.199 143.245 114.391 145.299 117.949L161.639 146.25C163.693 149.808 163.693 154.192 161.639 157.75L145.299 186.051C143.245 189.609 139.448 191.801 135.34 191.801H102.66C98.5517 191.801 94.7552 189.609 92.701 186.051L76.3612 157.75C74.3069 154.192 74.3069 149.808 76.3612 146.25Z" stroke="#333333" stroke-width="7"/>
<path d="M7.36122 107.25L23.701 78.9487C25.7552 75.3906 29.5517 73.1987 33.6603 73.1987H66.3397C70.4483 73.1987 74.2448 75.3906 76.299 78.9487L92.6388 107.25C94.6931 110.808 94.6931 115.192 92.6388 118.75L76.299 147.051C74.2448 150.609 70.4483 152.801 66.3397 152.801H33.6603C29.5517 152.801 25.7552 150.609 23.701 147.051L7.36122 118.75C5.30694 115.192 5.30694 110.808 7.36122 107.25Z" stroke="#333333" stroke-width="7"/>
<path d="M145.361 107.25L161.701 78.9487C163.755 75.3906 167.552 73.1987 171.66 73.1987H204.34C208.448 73.1987 212.245 75.3906 214.299 78.9487L230.639 107.25C232.693 110.808 232.693 115.192 230.639 118.75L214.299 147.051C212.245 150.609 208.448 152.801 204.34 152.801H171.66C167.552 152.801 163.755 150.609 161.701 147.051L145.361 118.75C143.307 115.192 143.307 110.808 145.361 107.25Z" stroke="#333333" stroke-width="7"/>
<path d="M116.067 204.945L111.652 197.299C110.305 194.965 111.989 192.049 114.683 192.049H123.512C126.207 192.049 127.891 194.965 126.543 197.299L122.129 204.945C120.782 207.279 117.414 207.279 116.067 204.945Z" stroke="#333333" stroke-width="7"/>
<path d="M76.3612 67.25L92.701 38.9487C94.7552 35.3906 98.5517 33.1987 102.66 33.1987H135.34C139.448 33.1987 143.245 35.3906 145.299 38.9487L161.639 67.25C163.693 70.8081 163.693 75.1919 161.639 78.75L145.299 107.051C143.245 110.609 139.448 112.801 135.34 112.801H102.66C98.5517 112.801 94.7552 110.609 92.701 107.051L76.3612 78.75C74.3069 75.1919 74.3069 70.8081 76.3612 67.25Z" stroke="#333333" stroke-width="7"/>
<line x1="129.719" y1="32.1338" x2="145.222" y2="5.28109" stroke="#333333" stroke-width="7" stroke-linecap="round" stroke-linejoin="round"/>
<line x1="91.7811" y1="5.28109" x2="107.285" y2="32.1338" stroke="#333333" stroke-width="7" stroke-linecap="round" stroke-linejoin="round"/>
<line x1="103.5" y1="152.5" x2="134.695" y2="152.5" stroke="#333333" stroke-width="7" stroke-linecap="round" stroke-linejoin="round"/>
<line x1="119.5" y1="167.695" x2="119.5" y2="136.5" stroke="#333333" stroke-width="7" stroke-linecap="round" stroke-linejoin="round"/>
</svg>
